<?xml version="1.0" encoding="utf-8"?>
<!-- Generator: Adobe Illustrator 24.3.0, SVG Export Plug-In . SVG Version: 6.00 Build 0)  -->
<svg version="1.1" id="Layer_1" xmlns="http://www.w3.org/2000/svg" xmlns:xlink="http://www.w3.org/1999/xlink" x="0px" y="0px"
	 viewBox="0 0 127.9 127.9" style="enable-background:new 0 0 127.9 127.9;" xml:space="preserve">
<style type="text/css">
	.st0{fill:#FFFFFF;}
	.st1{fill-rule:evenodd;clip-rule:evenodd;fill:#FFFFFF;}
</style>
<g>
	<rect width="127.9" height="127.9"/>
	<g>
		<path class="st0" d="M107.8,86c-4.8,0-7.7-2.5-7.8-6h4.5c0,1.1,0.7,2.7,3.6,2.7c1.9,0,2.9-1.1,2.9-2c-0.1-1.4-1.8-1.5-3.7-1.8
			c-1.8-0.3-3.4-0.6-4.5-1.2c-1.4-0.7-2.4-2.4-2.4-4.2c0-3.1,2.7-5.6,7.2-5.6c4.3,0,7.1,2.3,7.4,5.7h-4.3c-0.1-0.9-0.2-2.3-2.8-2.3
			c-1.7,0-2.9,0.3-3,1.5c0,1.8,3.6,1.7,6.4,2.4c2.7,0.7,4.4,2.3,4.4,4.7C115.5,84.3,112,86,107.8,86"/>
		<polygon class="st0" points="24.6,57.2 39.7,48.6 47.7,62.3 27.6,62.3 		"/>
		<rect x="54.1" y="68.2" class="st0" width="4.3" height="17.3"/>
		<path class="st1" d="M17.8,77c0,2.7,2.3,4.9,5,4.9c2.7,0,5-2.2,5-4.9c0-2.7-2.3-5-5-5C20.1,72,17.8,74.3,17.8,77 M22.6,86
			c-4.9,0-9-4.1-9-9c0-5,4.1-8.9,9-8.9c1.9,0,3.7,0.5,5.2,1.5v-1.4H32v17.3h-4.2v-1.1C26.4,85.4,24.6,86,22.6,86"/>
		<polygon class="st0" points="80.5,62.3 59.5,26 74.6,17.3 100.6,62.3 		"/>
		<path class="st1" d="M37.6,77c0,2.7,2.3,4.9,5,4.9c2.7,0,5-2.2,5-4.9c0-2.7-2.3-5-5-5C39.9,72,37.6,74.3,37.6,77 M42.6,86
			c-5,0-9-4.1-9-9c0-5,4.1-8.9,9-8.9c1.9,0,3.6,0.5,5.1,1.5v-7.3h4.3v23.2h-4.3v-1.1C46.2,85.4,44.4,86,42.6,86"/>
		<polygon class="st0" points="42.2,41.8 57.3,33.1 74.2,62.3 58.4,62.3 58.4,66.6 54.1,66.6 54.1,62.3 		"/>
		<path class="st1" d="M84.1,77c0,2.7,2.3,4.9,5,4.9c2.7,0,4.9-2.2,4.9-4.9c0-2.7-2.2-5-4.9-5C86.3,72,84.1,74.3,84.1,77 M88.9,86
			c-4.9,0-9-4.1-9-9c0-5,4.1-8.9,9-8.9c1.9,0,3.7,0.5,5.1,1.5v-1.4h4.3v17.3H94v-1.1C92.5,85.4,90.8,86,88.9,86"/>
		<path class="st1" d="M64.3,77c0,2.7,2.3,4.9,4.9,4.9c2.7,0,5-2.2,5-4.9c0-2.7-2.3-5-5-5C66.5,72,64.3,74.3,64.3,77 M74.2,62.3h4.2
			v23.2h-4.2v-1.1c-1.4,1-3.2,1.5-5.1,1.5c-4.9,0-9-4.1-9-9c0-5,4.1-8.9,9-8.9c1.9,0,3.7,0.5,5.1,1.5V62.3z"/>
	</g>
	<g>
		<path class="st0" d="M22.4,108.2h-7.5v1.9l-0.7,0.1v-2.6h0.8l3.3-8.7H19l3.3,8.7H23v2.5l-0.7,0.1V108.2z M21.5,107.6l-2.9-7.7
			l-2.9,7.7H21.5z"/>
		<path class="st0" d="M30.2,100l-5.6,8.2h-0.7v-9.4h0.7v8.2l5.6-8.2h0.7v9.4h-0.7V100z"/>
		<path class="st0" d="M32.8,103.6c0,2.4,1.8,4.1,4.1,4.1c1.6,0,2.8-0.8,3.5-2l0.6,0.4c-0.8,1.4-2.1,2.3-4.1,2.3
			c-2.7,0-4.8-2-4.8-4.8c0-2.8,2.2-4.8,4.8-4.8c1.9,0,3.3,0.9,4.1,2.3l-0.6,0.4c-0.7-1.2-1.9-2-3.5-2
			C34.6,99.5,32.8,101.2,32.8,103.6z"/>
		<path class="st0" d="M47.4,98.9h0.9l-4.8,4.7l4.9,4.7h-1l-4.7-4.5v4.5H42v-9.4h0.7v4.6L47.4,98.9z"/>
		<path class="st0" d="M47.4,103.6c0-2.8,2.1-4.8,4.8-4.8c2.6,0,4.8,2,4.8,4.8c0,2.8-2.1,4.8-4.8,4.8
			C49.6,108.4,47.4,106.3,47.4,103.6z M56.3,103.6c0-2.4-1.8-4.1-4.1-4.1c-2.3,0-4.1,1.7-4.1,4.1s1.8,4.1,4.1,4.1
			C54.5,107.7,56.3,105.9,56.3,103.6z"/>
		<path class="st0" d="M64.3,103.9h-5.5v4.3h-0.7v-9.4h0.7v4.4h5.5v-4.4H65v9.4h-0.7V103.9z"/>
		<path class="st0" d="M69,108.2v-8.7h-3.1v-0.7h6.8v0.7h-3.1v8.7H69z"/>
		<path class="st0" d="M72.4,104.6V104h3.7v0.6H72.4z"/>
		<path class="st0" d="M84.6,108.2h-7.2v-9.4h0.7v8.7h5.2v-8.7H84v8.7h1.2v2.5l-0.7,0.1V108.2z"/>
		<path class="st0" d="M86.2,98.9h5.6v0.7h-4.9v3.6h4.6v0.7h-4.6v3.7h5.2v0.7h-5.9V98.9z"/>
		<path class="st0" d="M99.2,103.9h-5.5v4.3H93v-9.4h0.7v4.4h5.5v-4.4h0.7v9.4h-0.7V103.9z"/>
		<path class="st0" d="M103.9,108.2v-8.7h-3.1v-0.7h6.8v0.7h-3.1v8.7H103.9z"/>
		<path class="st0" d="M109.3,105v3.3h-0.7v-9.4h3.2c1.9,0,3.2,1.3,3.2,3c0,1.8-1.3,3.1-3.4,3.1H109.3z M109.3,99.5v4.7h2.4
			c1.6,0,2.6-1.1,2.6-2.4c0-1.3-0.9-2.4-2.7-2.4H109.3z"/>
	</g>
</g>
</svg>
