<?xml version="1.0" encoding="utf-8"?>
<!-- Generator: Adobe Illustrator 24.3.0, SVG Export Plug-In . SVG Version: 6.00 Build 0)  -->
<svg version="1.1" id="Layer_1" xmlns="http://www.w3.org/2000/svg" xmlns:xlink="http://www.w3.org/1999/xlink" x="0px" y="0px"
	 viewBox="0 0 260 260" style="enable-background:new 0 0 260 260;" xml:space="preserve">
<style type="text/css">
	.st0{fill:none;}
	.st1{fill:#FFFFFF;}
	.st2{fill-rule:evenodd;clip-rule:evenodd;fill:#FFFFFF;}
</style>
<rect class="st0" width="260" height="260"/>
<g>
	<rect x="66" y="66" width="127.9" height="127.9"/>
	<g>
		<path class="st1" d="M173.8,152c-4.8,0-7.7-2.5-7.8-6h4.5c0,1.1,0.7,2.7,3.6,2.7c1.9,0,2.9-1.1,2.9-2c-0.1-1.4-1.8-1.5-3.7-1.8
			c-1.8-0.3-3.4-0.6-4.5-1.2c-1.4-0.7-2.4-2.4-2.4-4.2c0-3.1,2.7-5.6,7.2-5.6c4.3,0,7.1,2.3,7.4,5.7h-4.3c-0.1-0.9-0.2-2.3-2.8-2.3
			c-1.7,0-2.9,0.3-3,1.5c0,1.8,3.6,1.7,6.4,2.4c2.7,0.7,4.4,2.3,4.4,4.7C181.6,150.3,178.1,152,173.8,152"/>
		<polygon class="st1" points="90.7,123.3 105.7,114.6 113.7,128.4 93.6,128.4 		"/>
		<rect x="120.1" y="134.2" class="st1" width="4.3" height="17.3"/>
		<path class="st2" d="M83.8,143c0,2.7,2.3,4.9,5,4.9c2.7,0,5-2.2,5-4.9c0-2.7-2.3-5-5-5C86.1,138,83.8,140.3,83.8,143 M88.7,152
			c-4.9,0-9-4.1-9-9c0-5,4.1-8.9,9-8.9c1.9,0,3.7,0.5,5.2,1.5v-1.4h4.2v17.3h-4.2v-1.1C92.4,151.4,90.6,152,88.7,152"/>
		<polygon class="st1" points="146.5,128.4 125.5,92 140.6,83.3 166.6,128.4 		"/>
		<path class="st2" d="M103.7,143c0,2.7,2.3,4.9,5,4.9c2.7,0,5-2.2,5-4.9c0-2.7-2.3-5-5-5C106,138,103.7,140.3,103.7,143 M108.6,152
			c-5,0-9-4.1-9-9c0-5,4.1-8.9,9-8.9c1.9,0,3.6,0.5,5.1,1.5v-7.3h4.3v23.2h-4.3v-1.1C112.2,151.4,110.5,152,108.6,152"/>
		<polygon class="st1" points="108.3,107.8 123.4,99.2 140.2,128.4 124.4,128.4 124.4,132.6 120.1,132.6 120.1,128.4 		"/>
		<path class="st2" d="M150.1,143c0,2.7,2.3,4.9,5,4.9c2.7,0,4.9-2.2,4.9-4.9c0-2.7-2.2-5-4.9-5C152.4,138,150.1,140.3,150.1,143
			 M154.9,152c-4.9,0-9-4.1-9-9c0-5,4.1-8.9,9-8.9c1.9,0,3.7,0.5,5.1,1.5v-1.4h4.3v17.3H160v-1.1C158.6,151.4,156.8,152,154.9,152"
			/>
		<path class="st2" d="M130.3,143c0,2.7,2.3,4.9,4.9,4.9c2.7,0,5-2.2,5-4.9c0-2.7-2.3-5-5-5C132.6,138,130.3,140.3,130.3,143
			 M140.2,128.4h4.2v23.2h-4.2v-1.1c-1.4,1-3.2,1.5-5.1,1.5c-4.9,0-9-4.1-9-9c0-5,4.1-8.9,9-8.9c1.9,0,3.7,0.5,5.1,1.5V128.4z"/>
	</g>
	<g>
		<path class="st1" d="M88.4,174.3h-7.5v1.9l-0.7,0.1v-2.6h0.8l3.3-8.7H85l3.3,8.7h0.8v2.5l-0.7,0.1V174.3z M87.5,173.6l-2.9-7.7
			l-2.9,7.7H87.5z"/>
		<path class="st1" d="M96.3,166.1l-5.6,8.2h-0.7v-9.4h0.7v8.2l5.6-8.2H97v9.4h-0.7V166.1z"/>
		<path class="st1" d="M98.8,169.6c0,2.4,1.8,4.1,4.1,4.1c1.6,0,2.8-0.8,3.5-2l0.6,0.4c-0.8,1.4-2.1,2.3-4.1,2.3
			c-2.7,0-4.8-2-4.8-4.8c0-2.8,2.2-4.8,4.8-4.8c1.9,0,3.3,0.9,4.1,2.3l-0.6,0.4c-0.7-1.2-1.9-2-3.5-2
			C100.6,165.5,98.8,167.2,98.8,169.6z"/>
		<path class="st1" d="M113.4,164.9h0.9l-4.8,4.7l4.9,4.7h-1l-4.7-4.5v4.5H108v-9.4h0.7v4.6L113.4,164.9z"/>
		<path class="st1" d="M113.5,169.6c0-2.8,2.1-4.8,4.8-4.8c2.6,0,4.8,2,4.8,4.8c0,2.8-2.1,4.8-4.8,4.8
			C115.6,174.4,113.5,172.4,113.5,169.6z M122.3,169.6c0-2.4-1.8-4.1-4.1-4.1c-2.3,0-4.1,1.7-4.1,4.1c0,2.4,1.8,4.1,4.1,4.1
			C120.5,173.7,122.3,171.9,122.3,169.6z"/>
		<path class="st1" d="M130.4,169.9h-5.5v4.3h-0.7v-9.4h0.7v4.4h5.5v-4.4h0.7v9.4h-0.7V169.9z"/>
		<path class="st1" d="M135,174.3v-8.7H132v-0.7h6.8v0.7h-3.1v8.7H135z"/>
		<path class="st1" d="M138.5,170.7v-0.6h3.7v0.6H138.5z"/>
		<path class="st1" d="M150.6,174.3h-7.2v-9.4h0.7v8.7h5.2v-8.7h0.7v8.7h1.2v2.5l-0.7,0.1V174.3z"/>
		<path class="st1" d="M152.2,164.9h5.6v0.7H153v3.6h4.6v0.7H153v3.7h5.2v0.7h-5.9V164.9z"/>
		<path class="st1" d="M165.3,169.9h-5.5v4.3h-0.7v-9.4h0.7v4.4h5.5v-4.4h0.7v9.4h-0.7V169.9z"/>
		<path class="st1" d="M170,174.3v-8.7h-3.1v-0.7h6.8v0.7h-3.1v8.7H170z"/>
		<path class="st1" d="M175.3,171v3.3h-0.7v-9.4h3.2c1.9,0,3.2,1.3,3.2,3c0,1.8-1.3,3.1-3.4,3.1H175.3z M175.3,165.6v4.7h2.4
			c1.6,0,2.6-1.1,2.6-2.4c0-1.3-0.9-2.4-2.7-2.4H175.3z"/>
	</g>
</g>
</svg>
