<?xml version="1.0" encoding="utf-8"?>
<!-- Generator: Adobe Illustrator 24.3.0, SVG Export Plug-In . SVG Version: 6.00 Build 0)  -->
<svg version="1.1" id="Layer_1" xmlns="http://www.w3.org/2000/svg" xmlns:xlink="http://www.w3.org/1999/xlink" x="0px" y="0px"
	 viewBox="0 0 50 50" style="enable-background:new 0 0 50 50;" xml:space="preserve">
<style type="text/css">
	.st0{fill:#AA0021;}
</style>
<g>
	<g>
		<path class="st0" d="M25,2c12.7,0,23,10.3,23,23S37.7,48,25,48S2,37.7,2,25S12.3,2,25,2 M25,0C11.2,0,0,11.2,0,25s11.2,25,25,25
			s25-11.2,25-25S38.8,0,25,0L25,0z"/>
	</g>
	<g>
		<path class="st0" d="M27.8,18H30v-3.8c-0.4-0.1-1.7-0.2-3.1-0.2c-3.1,0-5.2,2-5.2,5.6v3.3h-3.4v4.2h3.4v10.6h4.2V27.1h3.3l0.5-4.2
			h-3.8V20C25.8,18.8,26.1,18,27.8,18L27.8,18z M27.8,18"/>
	</g>
</g>
</svg>
