<?xml version="1.0" encoding="utf-8"?>
<!-- Generator: Adobe Illustrator 24.3.0, SVG Export Plug-In . SVG Version: 6.00 Build 0)  -->
<svg version="1.1" id="Layer_1" xmlns="http://www.w3.org/2000/svg" xmlns:xlink="http://www.w3.org/1999/xlink" x="0px" y="0px"
	 viewBox="0 0 55 55" style="enable-background:new 0 0 55 55;" xml:space="preserve">
<style type="text/css">
	.st0{fill:#AA0021;}
</style>
<g>
	<path class="st0" d="M4.2,24.4L4,9.9c0-0.7,0.6-1.3,1.3-1.3l14.5,0.2c1.2,0,1.7,1.4,0.9,2.2l-4,4l6.7,6.7L17.2,28l-6.7-6.7l-4,4
		C5.6,26.2,4.2,25.6,4.2,24.4L4.2,24.4z M4.2,24.4"/>
	<path class="st0" d="M44.5,21.4l4,4c0.8,0.8,2.2,0.2,2.2-0.9L51,10c0-0.7-0.6-1.3-1.3-1.3L35.1,8.9c-1.2,0-1.7,1.4-0.9,2.2l4,4
		l-6.7,6.7l6.2,6.2L44.5,21.4z M44.5,21.4"/>
	<path class="st0" d="M34.2,52.5c-0.8,0.8-0.2,2.2,0.9,2.2L49.7,55c0.7,0,1.3-0.6,1.3-1.3l-0.2-14.5c0-1.2-1.4-1.7-2.2-0.9l-4,4
		l-6.7-6.7l-6.2,6.2l6.7,6.7L34.2,52.5z M34.2,52.5"/>
	<path class="st0" d="M5.3,54.9l14.5-0.2c1.2,0,1.7-1.4,0.9-2.2l-4-4l6.7-6.7l-6.2-6.2l-6.7,6.7l-4-4c-0.8-0.8-2.2-0.3-2.2,0.9
		L4,53.6C4,54.3,4.6,54.9,5.3,54.9L5.3,54.9z M5.3,54.9"/>
</g>
</svg>
