<?xml version="1.0" encoding="utf-8"?>
<!-- Generator: Adobe Illustrator 24.3.0, SVG Export Plug-In . SVG Version: 6.00 Build 0)  -->
<svg version="1.1" id="Layer_1" xmlns="http://www.w3.org/2000/svg" xmlns:xlink="http://www.w3.org/1999/xlink" x="0px" y="0px"
	 viewBox="0 0 55 55" style="enable-background:new 0 0 55 55;" xml:space="preserve">
<style type="text/css">
	.st0{fill:#AA0021;}
</style>
<g>
	<path class="st0" d="M27.5,21.8H22v11.1h5.5c3,0,5.5-2.5,5.5-5.5C33,24.3,30.5,21.8,27.5,21.8L27.5,21.8z M27.5,21.8"/>
	<path class="st0" d="M42.1,14.9H12.9c-1.1,0-2,0.9-2,2v29.1c0,1.1,0.9,2,2,2h29.1c1.1,0,2-0.9,2-2V16.9
		C44.1,15.8,43.2,14.9,42.1,14.9L42.1,14.9z M27.5,35.6H22v8.3h-2.8V19.1h8.3c4.6,0,8.3,3.7,8.3,8.3C35.8,31.9,32.1,35.6,27.5,35.6
		L27.5,35.6z M27.5,35.6"/>
	<path class="st0" d="M43.4,8H11.6C7.4,8,4,11.4,4,15.6v31.7c0,4.2,3.4,7.6,7.6,7.6h31.7c4.2,0,7.6-3.4,7.6-7.6V15.6
		C51,11.4,47.6,8,43.4,8L43.4,8z M46.9,46.1c0,2.6-2.1,4.8-4.8,4.8H12.9c-2.6,0-4.8-2.1-4.8-4.8V16.9c0-2.6,2.1-4.8,4.8-4.8h29.1
		c2.6,0,4.8,2.1,4.8,4.8V46.1z M46.9,46.1"/>
</g>
</svg>
