<?xml version="1.0" encoding="utf-8"?>
<!-- Generator: Adobe Illustrator 24.3.0, SVG Export Plug-In . SVG Version: 6.00 Build 0)  -->
<svg version="1.1" id="Layer_1" xmlns="http://www.w3.org/2000/svg" xmlns:xlink="http://www.w3.org/1999/xlink" x="0px" y="0px"
	 viewBox="0 0 55 55" style="enable-background:new 0 0 55 55;" xml:space="preserve">
<style type="text/css">
	.st0{fill:#AA0021;}
</style>
<g>
	<path class="st0" d="M19,0.8c-1-1-2.6-1-3.5,0c-1.4,1.4-3.2,3.2-3.2,6.8c0,3.5,1.9,5.4,3.2,6.8c1.2,1.2,1.8,1.8,1.8,3.2
		c0,1.4,1.1,2.5,2.5,2.5c1.4,0,2.5-1.1,2.5-2.5c0-3.5-1.9-5.4-3.2-6.8c-1.2-1.2-1.8-1.8-1.8-3.2c0-1.4,0.5-2,1.8-3.2
		C20,3.3,20,1.8,19,0.8z"/>
	<path class="st0" d="M30.7,0.8c-1-1-2.6-1-3.5,0c-1.4,1.4-3.2,3.2-3.2,6.8c0,3.5,1.9,5.4,3.2,6.8c1.2,1.2,1.8,1.8,1.8,3.2
		c0,1.4,1.1,2.5,2.5,2.5c1.4,0,2.5-1.1,2.5-2.5c0-3.5-1.9-5.4-3.2-6.8c-1.2-1.2-1.8-1.8-1.8-3.2c0-1.4,0.5-2,1.8-3.2
		C31.7,3.3,31.7,1.8,30.7,0.8z"/>
	<path class="st0" d="M43.1,25.1h-3.3H6.4c-1.4,0-2.5,1.1-2.5,2.5v8.3c0,5.6,2.4,10.7,6.3,14.2H4.8c-1.4,0-2.5,1.1-2.5,2.5
		c0,1.4,1.1,2.5,2.5,2.5h18.3h18.3c1.4,0,2.5-1.1,2.5-2.5c0-1.4-1.1-2.5-2.5-2.5H36c2-1.8,3.7-4.1,4.7-6.7h2.4c0,0,0,0,0,0
		c5.1,0,9.2-4.1,9.2-9.2C52.3,29.2,48.2,25.1,43.1,25.1z M43.1,38.4C43.1,38.4,43.1,38.4,43.1,38.4h-1c0.1-0.8,0.2-1.7,0.2-2.5v-5.8
		h0.8c2.3,0,4.2,1.9,4.2,4.2S45.4,38.4,43.1,38.4z"/>
</g>
</svg>
