<?xml version="1.0" encoding="utf-8"?>
<!-- Generator: Adobe Illustrator 24.3.0, SVG Export Plug-In . SVG Version: 6.00 Build 0)  -->
<svg version="1.1" id="Layer_1" xmlns="http://www.w3.org/2000/svg" xmlns:xlink="http://www.w3.org/1999/xlink" x="0px" y="0px"
	 viewBox="0 0 55 55" style="enable-background:new 0 0 55 55;" xml:space="preserve">
<style type="text/css">
	.st0{fill:#AA0021;}
</style>
<g>
	<path class="st0" d="M42.2,15.2l-11-8c-2.2-1.6-5.2-1.6-7.4,0l-11,8c-1.8,1.3-2.9,3.4-2.9,5.6v26.8c0,4.1,3.3,7.4,7.4,7.4h20.2
		c4.1,0,7.4-3.3,7.4-7.4V20.8C45.1,18.6,44,16.5,42.2,15.2L42.2,15.2z M27.6,13.2c0.9,0,1.6,0.7,1.6,1.6c0,0.9-0.7,1.6-1.6,1.6
		c-0.9,0-1.6-0.7-1.6-1.6C25.9,13.9,26.7,13.2,27.6,13.2L27.6,13.2z M16.6,29.1c0-2.6,2.1-4.6,4.6-4.6c2.6,0,4.6,2.1,4.6,4.6
		c0,2.6-2.1,4.6-4.6,4.6C18.7,33.7,16.6,31.7,16.6,29.1L16.6,29.1z M21.6,42.8c-1.4,0-2.1-1.7-1.1-2.6l12-12c0.6-0.6,1.6-0.6,2.2,0
		c0.6,0.6,0.6,1.6,0,2.2l-12,12C22.4,42.6,22,42.8,21.6,42.8L21.6,42.8z M37,44.8c0-0.1-1.1,1.4-3.3,1.4c-2.5,0-4.6-2.1-4.6-4.6
		c0-2.6,2.1-4.6,4.6-4.6C37.9,36.9,39.9,41.9,37,44.8L37,44.8z M37,44.8"/>
	<path class="st0" d="M33.7,40c-0.8,0-1.5,0.7-1.5,1.5c0,1.4,1.7,2,2.6,1.1c0,0,0.4-0.4,0.4-1.1C35.3,40.7,34.6,40,33.7,40L33.7,40z
		 M33.7,40"/>
	<path class="st0" d="M22.4,30.2c1-1,0.3-2.6-1.1-2.6c-0.8,0-1.5,0.7-1.5,1.5C19.7,30.5,21.4,31.1,22.4,30.2L22.4,30.2z M22.4,30.2"
		/>
</g>
</svg>
