<?xml version="1.0" encoding="utf-8"?>
<!-- Generator: Adobe Illustrator 24.3.0, SVG Export Plug-In . SVG Version: 6.00 Build 0)  -->
<svg version="1.1" id="Layer_1" xmlns="http://www.w3.org/2000/svg" xmlns:xlink="http://www.w3.org/1999/xlink" x="0px" y="0px"
	 viewBox="0 0 50 50" style="enable-background:new 0 0 50 50;" xml:space="preserve">
<style type="text/css">
	.st0{fill:#AA0021;}
	.st1{fill:#F3F3F3;}
</style>
<g>
	<g>
		<path class="st0" d="M25,17.6c-4.1,0-7.4,3.3-7.4,7.4c0,4.1,3.3,7.4,7.4,7.4c4.1,0,7.4-3.3,7.4-7.4C32.4,20.9,29.1,17.6,25,17.6z
			 M25,29.8c-2.6,0-4.8-2.1-4.8-4.8c0-2.6,2.1-4.8,4.8-4.8s4.8,2.1,4.8,4.8C29.8,27.6,27.6,29.8,25,29.8z"/>
		<path class="st0" d="M39.3,19.1c-0.1-1.5-0.3-2.6-0.7-3.5c-0.4-1-0.9-1.8-1.7-2.5c-0.7-0.7-1.6-1.3-2.5-1.7
			c-0.9-0.4-2-0.6-3.5-0.7c-1.5-0.1-2-0.1-5.9-0.1s-4.4,0-5.9,0.1c-1.5,0.1-2.6,0.3-3.5,0.7c-1,0.4-1.8,0.9-2.5,1.7
			c-0.7,0.7-1.3,1.6-1.7,2.5c-0.4,0.9-0.6,2-0.7,3.5c-0.1,1.5-0.1,2-0.1,5.9s0,4.4,0.1,5.9c0.1,1.5,0.3,2.6,0.7,3.5
			c0.4,1,0.9,1.8,1.7,2.5c0.7,0.7,1.6,1.3,2.5,1.7c0.9,0.4,2,0.6,3.5,0.7c1.5,0.1,2,0.1,5.9,0.1c3.9,0,4.4,0,5.9-0.1
			c1.5-0.1,2.6-0.3,3.5-0.7c1.9-0.7,3.5-2.3,4.2-4.2c0.4-0.9,0.6-2,0.7-3.5c0.1-1.5,0.1-2,0.1-5.9S39.3,20.6,39.3,19.1z M36.7,30.8
			c-0.1,1.4-0.3,2.2-0.5,2.7c-0.5,1.3-1.5,2.2-2.7,2.7c-0.5,0.2-1.3,0.4-2.7,0.5c-1.5,0.1-2,0.1-5.8,0.1c-3.8,0-4.3,0-5.8-0.1
			c-1.4-0.1-2.2-0.3-2.7-0.5c-0.6-0.2-1.2-0.6-1.7-1.1c-0.5-0.5-0.8-1-1.1-1.7c-0.2-0.5-0.4-1.3-0.5-2.7c-0.1-1.5-0.1-2-0.1-5.8
			c0-3.8,0-4.3,0.1-5.8c0.1-1.4,0.3-2.2,0.5-2.7c0.2-0.6,0.6-1.2,1.1-1.7c0.5-0.5,1-0.8,1.7-1.1c0.5-0.2,1.3-0.4,2.7-0.5
			c1.5-0.1,2-0.1,5.8-0.1c3.8,0,4.3,0,5.8,0.1c1.4,0.1,2.2,0.3,2.7,0.5c0.6,0.2,1.2,0.6,1.7,1.1c0.5,0.5,0.8,1,1.1,1.7
			c0.2,0.5,0.4,1.3,0.5,2.7c0.1,1.5,0.1,2,0.1,5.8C36.8,28.8,36.8,29.3,36.7,30.8z"/>
		<path class="st0" d="M32.7,15.6c-1,0-1.7,0.8-1.7,1.7c0,1,0.8,1.7,1.7,1.7c1,0,1.7-0.8,1.7-1.7C34.4,16.4,33.6,15.6,32.7,15.6z"/>
	</g>
	<g>
		<path class="st0" d="M25,2c12.7,0,23,10.3,23,23S37.7,48,25,48S2,37.7,2,25S12.3,2,25,2 M25,0C11.2,0,0,11.2,0,25s11.2,25,25,25
			s25-11.2,25-25S38.8,0,25,0L25,0z"/>
	</g>
	<path class="st1" d="M39.3,30.9"/>
</g>
</svg>
