<?xml version="1.0" encoding="utf-8"?>
<!-- Generator: Adobe Illustrator 25.2.1, SVG Export Plug-In . SVG Version: 6.00 Build 0)  -->
<svg version="1.1" id="Layer_1" xmlns="http://www.w3.org/2000/svg" xmlns:xlink="http://www.w3.org/1999/xlink" x="0px" y="0px"
	 viewBox="0 0 68 27.9" style="enable-background:new 0 0 68 27.9;" xml:space="preserve">
<style type="text/css">
	.st0{fill:#AA0021;}
</style>
<g>
	<path class="st0" d="M63.9,0H30.8c-2.2,0-4.1,1.9-4.1,4.1v19.7c0,2.2,1.9,4.1,4.1,4.1h33.2c2.2,0,4.1-1.9,4.1-4.1V4.1
		C68,1.9,66.2,0,63.9,0z M65.3,23.6L56,14.4l9.3-9.3V23.6z M29.5,5l9.3,9.3l-9.3,9.3V5z M48.4,18.3c-0.6,0.6-1.4,0.6-1.9,0
		C46,17.8,31.6,3.4,30.9,2.7h33C63.2,3.3,48.8,17.8,48.4,18.3z M40.7,16.2l3.9,3.9c1.6,1.6,4.2,1.6,5.7,0l3.9-3.9l8.9,8.9H31.8
		L40.7,16.2z"/>
	<path class="st0" d="M21.2,12.2H9.7c-0.7,0-1.4-0.6-1.4-1.4S9,9.4,9.7,9.4h11.6c0.7,0,1.4,0.6,1.4,1.4S22,12.2,21.2,12.2z"/>
	<path class="st0" d="M21.7,18.2H1.4c-0.7,0-1.4-0.6-1.4-1.4c0-0.7,0.6-1.4,1.4-1.4h20.3c0.7,0,1.4,0.6,1.4,1.4
		C23.1,17.5,22.4,18.2,21.7,18.2z"/>
</g>
</svg>
